<svg xmlns="http://www.w3.org/2000/svg" viewBox="0 0 800 600" width="800" height="600"><g transform="translate(233.0 44.0) rotate(0.0 167.0 91.0) scale(0.9973841063557854 0.9996924023377421)"><svg width="334.876" height="182.056" viewBox="0 0 334.876 182.056"><path d="M330.876 182.056H4a4 4 0 0 1-4-4V4a4 4 0 0 1 4-4h326.876a4 4 0 0 1 4 4v174.056a4 4 0 0 1-4 4z" fill="#8e91a2"/><path d="M9.938 6.528h315v169h-315z" fill="#68abff"/></svg></g><g transform="translate(188.0 250.0) rotate(0.0 98.5 133.5) scale(0.9963736046976233 0.9963318568715179)"><svg width="197.717" height="267.983" viewBox="0 0 197.717 267.983"><path d="M22.134 156.425c-5.43 13.468 4.646 28.111 19.166 27.85l17.068-.306c2.464.062 4.926-.18 7.331-.719l71.687-11.957.568-8.367c1.166-13.078-9.672-24.082-22.767-23.114l-89.841 8.648z" fill="#013b84"/><path d="m96.218 221.143-7.714 12.028-4.212 6.569-1.247 1.944-4.031 6.283-1.987 3.1-3.019 4.714-.174.27-11.664-14.833 6.709-14.605 13.725-45.229a30.006 30.006 0 0 1 4.991-9.66l20.459-26.41a9.218 9.218 0 0 1 7.074-3.57l4.821-.111c9.73-.225 17.445 8.145 16.432 17.824l-.361 3.446c-.677 2.203-39.802 58.24-39.802 58.24z" fill="#013b84"/><path d="m115.187 139.812-89.841 8.648-3.211 7.965c-5.43 13.468 4.646 28.111 19.166 27.85l17.068-.306c2.464.062 4.926-.18 7.331-.719l17.237-2.875a29.79 29.79 0 0 0-.332 1.01L68.88 226.614l-6.709 14.605 11.662 14.832.174-.27 3.019-4.714 1.987-3.1 4.032-6.283 1.247-1.944 4.212-6.569 7.714-12.028s22.336-31.991 33.546-48.579l7.622-1.271.568-8.367c1.166-13.079-9.672-24.083-22.767-23.114z" fill="#002652" opacity=".2"/><path d="m54.377 243.125 11.55 10.781 14.618 13.645c.858.02 5.804-.368 5.804-.368l-.109-1.539-.849-12.099-.955-13.57-.61-.118a1.876 1.876 0 0 0-2.143 1.28l-.813 2.601-4.833-1.736a9.088 9.088 0 0 1-5.969-7.568l-.584-5.339c-.1-.933-1.24-1.338-1.908-.677l-6.447 6.389-4.539 4.499-.393.386z" fill="#4d99f0"/><path d="m66.331 249.355 2.647 10.532 18.23 4.553 12.618.127h.03l.195-.128 2.415-1.58 1.413-.925a3.918 3.918 0 0 0 .808-5.853 3.928 3.928 0 0 0-2.408-1.304l-8.516-1.194a18.792 18.792 0 0 1-7.514-2.78 18.728 18.728 0 0 1-5.61-5.588l-6.897-3.393a1.869 1.869 0 0 0-.716 2.388l1.153 2.469-4.737 1.983a8.953 8.953 0 0 1-3.111.693z" fill="#4d99f0"/><path d="m76.681 262.93.013 4.652 17.371-.047a3.768 3.768 0 0 0 1.838-.484l4.383-2.484.225-.128 2.79-1.581-26.619.073z" fill="#2888ff"/><path d="m56.365 249.715 11.031 10.034 8.437 7.677c1.551.041 3.195.081 4.712.125.858.02 1.67.044 2.408.064L70.71 256.473a1.881 1.881 0 0 1-.61-1.271 9.398 9.398 0 0 0-3.059-6.389l-3.102-2.823-7.348-6.684-.184-.169a1.126 1.126 0 0 0-1.831.503l-.512 1.671a8.144 8.144 0 0 0 2.301 8.404z" fill="#2888ff"/><g fill="#c78982"><path d="M196.806 4.521c.802.536 1.142 1.677.743 2.772l-7.393 16.098-5.949.072 11.755-18.698a.615.615 0 0 1 .844-.244z"/><path d="M194.331.034c.884.392 1.421 1.458 1.223 2.607l-4.405 17.153-5.832 1.092L193.548.42a.611.611 0 0 1 .77-.39l.013.004z"/><path d="M191.063.812c.884.392 1.421 1.458 1.223 2.607l-4.405 17.153-5.832 1.092 8.231-20.466a.611.611 0 0 1 .77-.39l.013.004z"/><path d="m194.254 17.782-2.523 5.976-1.168.999-1.715 8.124c-1.624 3.965-5.245 6.584-9.331 7.112-.878.127-1.76.141-2.664.061-.152-.054-.29-.124-.421-.183l-.465-.213-12.781-1.039 15.569-10.837.475-1.189c.2-.117.369-.239.532-.374l6.794-5.427a12.872 12.872 0 0 0 1.985-1.968l1.196-1.491 4.056.408z"/><path d="M196.794 11.921c.736.623.941 1.792.417 2.833l-9.226 15.141-5.926-.597 5.11-6.348 8.758-10.881a.619.619 0 0 1 .854-.156l.013.008z"/><path d="m191.084 20.072-5.396 16.965-10.732 12.532-12.748 7.551-5.554-13.605 3.743-2.612 15.569-10.837.475-1.189 3.207-7.939a6.98 6.98 0 0 1 2.5-3.108l2.697-1.851 6.158 4.045zM90.147 52.09l15.917 13.304L79.73 96.898c-.639.764-1.884.373-1.971-.62l-2.327-26.586z"/></g><path d="M84.572 39.417c-.689-5.814 6.328-11.426 15.673-12.533 7.971-.945 15.063 1.694 17.402 6.1.606 1.141-.163 2.534-1.446 2.686z" fill="#002652"/><path d="M84.877 31.044c-.586-4.95 5.387-9.727 13.343-10.67 6.787-.804 12.824 1.442 14.815 5.193.515.971-.139 2.157-1.231 2.287z" fill="#002652"/><path d="m107.879 40.303 2.715 21.833c.241 2.591-2.113 4.665-4.653 4.1l-23.558-5.244z" fill="#c78982"/><path d="m107.671 53.789 3.858-.551c1.607-.229 2.172-2.263.912-3.288l-5.51-4.483zM93.475 28.203l-.499.046a3.835 3.835 0 0 0-3.464 4.175l1.235 13.264 17.687-1.647-.346-3.715c-.687-7.382-7.23-12.81-14.613-12.123z" fill="#c78982"/><path d="m97.138 42.55 11.088-1.032 1.312 14.096-11.088 1.032z" fill="#c78982"/><path d="m88.451 26.02-5.234.62c-5.719.678-9.806 5.863-9.129 11.583l3.067 25.89 33.288-3.943-2.198-18.548c-1.157-9.774-10.019-16.76-19.794-15.602z" fill="#c78982"/><path d="m108.327 44.335-2.533.3a1.12 1.12 0 0 0-.746.418l-.929 1.179c-.616.782.02 1.919 1.009 1.801l3.676-.436" fill="#002652" opacity=".1"/><path d="m95.042 49.827.465 3.922a9.118 9.118 0 0 0 6.458 7.667 5.173 5.173 0 0 1 4.527-5.745l3.371-.399.847 7.15c.309 2.607-2.104 4.706-4.643 4.041l-10.063-2.635a3.724 3.724 0 0 1-2.755-3.165l-1.6-13.509a3.055 3.055 0 0 1 3.393 2.673z" fill="#002652"/><path d="m106.685 61.584 2.617.286a1.088 1.088 0 0 0 1.199-1.211l-.365-3.079-2.441.289a2.384 2.384 0 0 0-2.087 2.648 1.219 1.219 0 0 0 1.077 1.067z" fill="#c78982"/><path d="m79.77 61.237 8.654 2.679-4.123-34.806a3.724 3.724 0 0 0-4.137-3.26l-1.664.197c-7.926.939-13.154 8.716-11.033 16.41l2.346 8.509a14.903 14.903 0 0 0 9.957 10.271z" fill="#002652"/><path d="m87.268 46.404 16.398-1.942.048-2.757-16.767 1.987z" fill="#93c3ff"/><path d="m76.821 30.979 12.944-1.533 3.174 26.794a7.449 7.449 0 0 1-6.521 8.274l-5.547.657z" fill="#002652"/><path d="m85.028 27.55 15.241-1.806 1.03 8.691a7.449 7.449 0 0 1-6.521 8.274l-7.844.929z" fill="#002652"/><path d="M107.664 42.257a.12.12 0 0 1 .076.097l.636 5.371a.112.112 0 0 1-.025.086.107.107 0 0 1-.078.043l-3.586.424a.122.122 0 0 1-.054-.006.12.12 0 0 1-.076-.097l-.636-5.371a.117.117 0 0 1 .103-.13l3.585-.425c.02 0 .037.002.055.008m.35-.936a1.125 1.125 0 0 0-.522-.063l-3.585.425a1.117 1.117 0 0 0-.978 1.241l.636 5.371a1.117 1.117 0 0 0 1.241.978l3.585-.425a1.118 1.118 0 0 0 .978-1.241l-.636-5.371a1.119 1.119 0 0 0-.719-.915z" fill="#93c3ff"/><path d="M81.184 48.819c-.689-5.814-8.823-9.63-18.167-8.524-7.971.945-14.25 5.167-15.495 9.997-.323 1.25.751 2.426 2.034 2.274z" fill="#002652"/><path d="M88.348 55.472c-.64-5.406-8.202-8.954-16.891-7.925-7.412.878-13.249 4.804-14.405 9.294-.299 1.163.698 2.255 1.891 2.114z" fill="#002652"/><path d="M84.796 60.393c4.509-.535 5.174-6.771.893-8.286-2.331-.825-5.075-1.144-7.952-.803-6.443.764-11.468 4.592-12.408 9.057-.244 1.156.643 2.262 1.68 2.139z" fill="#002652"/><path d="M87.621 64.401c3.323-.394 3.812-4.989.658-6.105-1.717-.607-3.739-.843-5.858-.591-4.747.562-8.449 3.384-9.141 6.673-.179.852.473 1.666 1.237 1.576zm-3.138-25.723c-.689-5.814-8.823-9.63-18.167-8.524-7.971.945-14.25 5.167-15.495 9.997-.323 1.25.751 2.426 2.034 2.274z" fill="#002652"/><path d="M98.075 29.942c-.689-5.814-8.823-9.63-18.167-8.524-7.971.945-14.25 5.167-15.495 9.997-.323 1.25.751 2.426 2.034 2.274z" fill="#002652"/><path d="M75.023 262.593v.004c-.028 0-.024-.004 0-.004z" fill="#29abe2"/><path d="M142.534 76.918a3.832 3.832 0 0 1-3.223 4.42L97.8 87.437c-6.728 1.12-13.09-3.427-14.21-10.156l-.305-1.833c-.699-4.197 2.21-8.015 6.408-8.714l49.885-7.58zM6.017 102.388a3.604 3.604 0 0 1 1.499-4.859l43.315-23.017a8.08 8.08 0 0 1 10.927 3.344l6.491 12.216-52.247 27.192a1.925 1.925 0 0 1-2.592-.812z" fill="#2888ff"/><path d="m179.863 45.025-12.78 14.793a19.877 19.877 0 0 1-2.416 2.36l-20.51 16.901c-4.623 3.81-11.459 3.15-15.269-1.473l-7.038-8.541 20.624-16.994 28.137-18.477zM15.607 157.387l-7.945-17.862a19.976 19.976 0 0 1-1.107-3.191L.389 112.13c-1.697-6.661 2.327-13.437 8.989-15.133l9.174-2.337 6.597 25.896 4.74 33.326zm24.444-61.765 1.958-8.331A20 20 0 0 1 58.637 72.07l38.958-6.649c3.129-.534 5.6 2.618 4.336 5.529l-35.25 81.158L47 140.689z" fill="#2888ff"/><path d="m103.819 185.766-6.32 35.115-2.154 11.963-1.178 6.534-.348 1.934-1.124 6.25-.557 3.083-.847 4.688-.047.268 6.972.645c1.649.155 3.399.317 5.01.473.913.084 1.776.168 2.561.243 2.011.191 3.461.338 3.644.365l.209-.574.595-1.626 4.686-12.783 5.254-14.338 16.236-41.956 6.557-15.342c2.689-6.011 1.269-12.721-3.709-17.031-7.454-6.454-19.007-4.039-23.251 4.861l-9.909 20.78c-1.126 2.14-1.896 4.318-2.28 6.448z" fill="#013b84"/><path d="m18.774 143.995 30.886-3.05a29.987 29.987 0 0 1 8.041-.053c-1.086-1.476 53.9.895 76.611 7.798 6.056 1.841 12.461 9.178 10.774 15.278-.81 2.93-1.6 6.204-2.954 8.681-2.428 4.441-5.18 8.255-10.188 8.468l-95.813 4.438c-11.16.432-20.756-7.837-21.978-18.938z" fill="#013b84"/><path d="m135.093 264.92 4.392-2.632c1.211-.726 2.052-1.964 2.235-3.29.269-1.95-.937-3.599-2.829-3.87l-8.345-1.193c-5.274-.755-9.631-3.81-11.942-8.374l-2.766-5.464-3.654 2.069c-.881.498-1.333 1.527-1.05 2.39l.808 2.47-5.013 1.984c-3.395 1.343-7.002.739-9.29-1.558l-3.534-3.545c-.619-.621-1.795-.151-1.974.789L89.096 260.7l.444 3.764z" fill="#68abff"/><path d="m12.057 170.345 21.042-1.793a24.312 24.312 0 0 0 16.565-8.602 24.25 24.25 0 0 1 16.209-8.565c5.13-.503 11.195-2.451 14.309-8.366C94.828 115.203 112.885 76.9 112.885 76.9l-74.067 9.446-20.324 28.243-7.178 32.902z" fill="#2888ff"/><path d="m108.435 86.049-7.505.223a3 3 0 0 0-2.954 3.601l2.576 12.606z" fill="#002652" opacity=".1"/><path d="m87.717 261.754.527 1.582c.95 2.845 3.565 4.655 6.713 4.647l33.473-.091a4.162 4.162 0 0 0 1.904-.486l7.986-4.192-27.562.075a1.623 1.623 0 0 1-1.233-.528c-1.521-1.706-3.743-2.658-6.195-2.651l-14.374.039c-.826.001-1.487.861-1.239 1.605z" fill="#3d94ff"/><path d="m34.022 90.274-7.295 19.939-13.912-1.937c-1.832-.255-2.366-2.647-.816-3.657z" fill="#002652" opacity=".1"/></svg></g><g transform="translate(265.0 76.0) rotate(0.0 135.0 62.5) scale(0.9979634154004237 0.9928987878691597)"><svg width="270.551" height="125.894" viewBox="0 0 270.551 125.894"><path d="M227.885 0c-22.877 0-41.601 18.1-42.617 40.732 1.263.109 2.509 3.847 3.738 4.064 1.448.256 2.872-2.99 4.267-2.591.249-18.879 15.675-34.162 34.612-34.162 19.092 0 34.624 15.532 34.624 34.624s-15.532 34.624-34.624 34.624c-1.385 0-2.749-.091-4.093-.25-1.409-.167-2.792-3.099-4.144-3.431-1.532-.376-3.025 1.827-4.471 1.254-10.289-4.076-18.175-12.939-20.888-23.833-1.465-.58-2.979-4.638-4.533-5.016-1.332-.324-2.695 3.003-4.083 2.839 2.438 16.704 14.589 30.289 30.519 34.836 1.289.368 2.603 4.251 3.938 4.498s2.692-3.144 4.067-3.025c1.217.105 2.444.17 3.688.17 23.526 0 42.666-19.14 42.666-42.666S251.412 0 227.885 0z" fill="#013b84"/><path d="M139.368 77.04c-1.344.159-2.707.25-4.093.25s-2.749-.091-4.093-.25c-1.345-.159-2.665-3.97-3.958-4.279-1.598-.382-3.153 2.699-4.657 2.103-10.289-4.076-18.175-12.939-20.888-23.833-1.284-.508-2.604-3.623-3.957-3.977-1.515-.396-3.07 1.988-4.658 1.8 2.438 16.704 14.589 30.288 30.519 34.836 1.289.368 2.603 4.251 3.938 4.498 1.335.246 2.692-3.144 4.067-3.025 1.217.105 2.444.17 3.688.17s2.471-.065 3.688-.17c-.029-.642 3.525-1.286 3.525-1.935-.001-2.102-3.416-4.167-3.121-6.188z" fill="#002652"/><path d="M177.892 40.732C176.877 18.1 158.153 0 135.276 0S93.674 18.1 92.659 40.732c1.337.115 2.657 2.973 3.956 3.209 1.373.25 2.724-2.115 4.049-1.737.249-18.879 15.675-34.162 34.612-34.162s34.363 15.283 34.612 34.162c.002.154-1.775 2.094-1.775 2.249 0 2.884 1.427 3.897.76 6.577-2.713 10.894-10.599 19.757-20.888 23.833-.319 1.28-3.248 2.588-3.421 3.919-.189 1.456.606 2.939.606 4.445 0 .155 1.797.308 1.799.462 15.93-4.547 28.081-18.132 30.519-34.836.295-2.021 4.028-4.086 4.028-6.188-.001-.648-3.595-1.292-3.624-1.933z" fill="#002652"/><path d="M85.282 40.732C84.267 18.1 65.543 0 42.666 0 19.14 0 0 19.14 0 42.666s19.14 42.666 42.666 42.666c1.243 0 2.471-.065 3.688-.17-.029-.642 1.738-1.286 1.738-1.935 0-.849.026-1.692.076-2.528.074-1.234-1.585-2.455-1.409-3.659-1.344.159-2.707.25-4.093.25-19.092 0-34.624-15.532-34.624-34.624S23.574 8.042 42.666 8.042c18.937 0 34.363 15.283 34.612 34.162.002.155-2.669 2.988-2.669 3.143 0 2.884 2.321 3.003 1.653 5.684-2.713 10.894-10.599 19.757-20.888 23.833-.668 2.68-2.815 3.693-2.815 6.577 0 .155 1.797 2.095 1.799 2.249 15.93-4.547 28.081-18.132 30.519-34.836.295-2.021 3.135-4.086 3.135-6.188 0-.649-2.701-1.293-2.73-1.934z" fill="#2888ff"/><g fill="none"><path d="M168.872 51.03c-10.289 4.076-18.175 12.939-20.888 23.833 10.289-4.075 18.175-12.938 20.888-23.833z"/><path d="M169.888 42.204c-.249-18.879-15.675-34.162-34.612-34.162s-34.363 15.283-34.612 34.162c15.93 4.547 28.081 18.132 30.519 34.836 1.344.159 2.707.25 4.093.25s2.749-.091 4.093-.25c2.438-16.704 14.589-30.288 30.519-34.836zm15.786 6.65c-1.344-.159-2.707-.25-4.093-.25s-2.75.091-4.094.25c-2.438 16.704-14.589 30.288-30.519 34.836.249 18.879 15.675 34.162 34.613 34.162 18.937 0 34.363-15.283 34.612-34.162-15.93-4.547-28.081-18.132-30.519-34.836z"/><path d="M194.289 51.03c2.713 10.894 10.599 19.757 20.888 23.833-2.713-10.894-10.599-19.757-20.888-23.833zm-118.027 0c-10.289 4.076-18.175 12.939-20.888 23.833 10.289-4.075 18.175-12.939 20.888-23.833z"/><path d="M77.278 42.204c-.25-18.879-15.676-34.162-34.612-34.162-19.092 0-34.624 15.532-34.624 34.624S23.574 77.29 42.666 77.29c1.385 0 2.749-.091 4.093-.25 2.437-16.704 14.589-30.289 30.519-34.836zm15.786 6.65a34.803 34.803 0 0 0-4.094-.25c-1.385 0-2.749.091-4.093.25-2.438 16.704-14.589 30.289-30.519 34.836.249 18.879 15.675 34.162 34.612 34.162s34.364-15.283 34.613-34.162c-15.93-4.547-28.081-18.132-30.519-34.836z"/><path d="M101.679 51.03c2.713 10.894 10.599 19.757 20.888 23.833-2.713-10.893-10.599-19.757-20.888-23.833zm122.113 26.01c1.344.159 2.707.25 4.093.25 19.092 0 34.624-15.532 34.624-34.624S246.977 8.042 227.885 8.042c-18.937 0-34.363 15.283-34.612 34.162 15.93 4.547 28.082 18.132 30.519 34.836z"/></g><path d="M123.583 83.69c-.249 18.879-15.675 34.162-34.613 34.162-18.937 0-34.363-15.283-34.612-34.162-.002-.155-.012-.307-.012-.462 0-2.884.36-5.684 1.027-8.364 2.713-10.894 10.599-19.757 20.888-23.833a34.536 34.536 0 0 0 1.027-8.364c0-.155-.01-.308-.012-.462-15.93 4.547-28.081 18.132-30.519 34.836a42.81 42.81 0 0 0-.454 6.188c0 .649.02 1.293.049 1.935 1.016 22.631 19.739 40.732 42.617 40.732s41.602-18.1 42.618-40.732a42.56 42.56 0 0 1-8.004-1.474z" fill="#93c3ff"/><path d="M100.663 42.204a42.395 42.395 0 0 0-8.005-1.473 42.851 42.851 0 0 0-3.689-.17c-1.243 0-2.471.065-3.688.17.029.642.049 1.286.049 1.935a42.81 42.81 0 0 1-.454 6.188c1.344-.159 2.707-.25 4.093-.25s2.75.091 4.094.25a34.33 34.33 0 0 1 8.615 2.176c10.289 4.076 18.175 12.939 20.888 23.833a34.286 34.286 0 0 0 8.615 2.176c-2.436-16.703-14.588-30.287-30.518-34.835z" fill="#93c3ff"/><path d="M216.193 83.69c-.249 18.879-15.675 34.162-34.612 34.162s-34.364-15.283-34.613-34.162c-.002-.155-.012-.307-.012-.462 0-2.884.36-5.684 1.027-8.364 2.713-10.894 10.599-19.757 20.888-23.833a34.542 34.542 0 0 0 1.027-8.364c0-.155-.01-.307-.012-.462-15.93 4.547-28.081 18.132-30.519 34.836a42.81 42.81 0 0 0-.454 6.188c0 .649.02 1.293.049 1.935 1.016 22.631 19.74 40.732 42.618 40.732s41.601-18.1 42.617-40.732a42.56 42.56 0 0 1-8.004-1.474z" fill="#016eea"/><path d="M193.273 42.204a42.315 42.315 0 0 0-8.005-1.472c-1.217-.105-2.444-.17-3.688-.17s-2.472.065-3.689.17c.029.642.049 1.286.049 1.934a42.81 42.81 0 0 1-.454 6.188 34.803 34.803 0 0 1 4.094-.25c1.385 0 2.749.091 4.093.25a34.33 34.33 0 0 1 8.615 2.176c10.289 4.076 18.175 12.939 20.888 23.833a34.286 34.286 0 0 0 8.615 2.176c-2.436-16.703-14.588-30.288-30.518-34.835z" fill="#016eea"/></svg></g><g transform="translate(450.0 248.0) rotate(0.0 105.0 134.5) scale(0.973822717892833 0.9755000797806758)"><svg width="215.645" height="275.756" viewBox="0 0 215.645 275.756"><path d="m66.995 252.786 15.403 3.078 14.487-54.265c1.451-5.435 1.59-11.19.406-16.83l-5.037-24.003-1.185-.883c-10.843-8.077-26.072-3.644-29.537 8.599l-.89 3.145a35.981 35.981 0 0 0-1.117 13.771z" fill="#99644c"/><path d="m37.411 275.747 46.789.009c.828-.007 1.493-1.107 1.485-1.934l-.063-7.115a1.498 1.498 0 0 0-1.512-1.485l-48.287.427a2.62 2.62 0 0 0-2.598 2.645l.03 3.37a4.121 4.121 0 0 0 4.156 4.083z" fill="#68abff"/><path d="m86.236 258.081 1.239 5.187c.715 2.991-1.537 5.87-4.612 5.897l-44.907.398a2.68 2.68 0 0 1-.328-5.345l7.113-.813a14.424 14.424 0 0 0 5.665-1.894l7.358-3.001a13.11 13.11 0 0 0 8.054-13.789l-2.439-27.223 15.534 20.013z" fill="#99644c"/><path d="m43.549 273.003 27.334-.995-7.997-18.001-16.334 7.996z" fill="#68abff"/><path d="m85.335 64.134 52.811-8.834a18.812 18.812 0 0 1 17.843 6.865l12.613 15.906-80.794 23.809c-6.726 2.206-13.666-2.732-13.787-9.809l-.241-14.049a13.842 13.842 0 0 1 11.555-13.888z" fill="#93c3ff"/><path d="M29.11 62.799c-1.675 5.068 1.095 10.531 6.174 12.175L79.407 89.26l5.764-24.641-47.005-8.941c-3.863-.591-7.83 3.41-9.056 7.121z" fill="#93c3ff"/><path d="m164.741 87.694 1.131 26.439 3.883 11.84 2.047 7.397c1.132 4.092 2.513 10.345 3.187 15.982.352 2.947-1.489 5.725-1.659 7.939l-.984 12.515a15.119 15.119 0 0 1-8.914 12.623l-22.408 9.995c-15.135 6.751-32.8-.943-38.166-16.623l-.21-.614a34.788 34.788 0 0 1-1.584-15.745 34.84 34.84 0 0 0-1.657-15.974l-8.632-24.721-6.199-3.57a20.965 20.965 0 0 1-10.497-17.674l-.493-20.94 73.325-4.858c9.376-.622 17.428 6.598 17.83 15.989z" fill="#93c3ff"/><circle cx="118.33" cy="35.214" fill="#002652" r="13.728"/><path d="m95.345 64.734-4.85-14.789 9.338-3.062 12.004-3.937 4.215 12.853a6.001 6.001 0 0 1-1.997 6.59l-7.629 5.986c-3.795 2.978-9.395 1.315-10.948-3.253zm1.393-23.274-10.126-1.3 1.65-12.87 10.127 1.298z" fill="#99644c"/><path d="m108.2 46.612-12.614-1.618 3.301-25.744 12.615 1.618z" fill="#002652"/><path d="m84.134 27.635-.788 6.14c-.029.223-.014.45.042.667l.554 2.128a1.76 1.76 0 0 1-.702 1.89l-.545.376-.888 6.925.864 1.062-1.141 1.096-.358 2.791a3.516 3.516 0 0 0 3.055 3.937l18.893 2.332 1.983-16.178z" fill="#99644c"/><path d="m84.853 46.304-4.501-3.122a1.759 1.759 0 0 1 .022-2.905l5.746-3.855z" fill="#99644c"/><path d="m83.955 37.422 3.589.46c.932.12 1.544-.947.969-1.691l-.866-1.121a1.053 1.053 0 0 0-.701-.401l-3.587-.46.698 2.537z" fill="#1d2445" opacity=".1"/><path d="m84.806 46.185-.496.728a1.762 1.762 0 0 1-1.172.745l-1.636.265.273-2.161z" fill="#fff"/><path d="m97.834 17.696.455.058a3.517 3.517 0 0 1 3.041 3.936l-1.554 12.114-16.152-2.072.435-3.393c.865-6.743 7.032-11.508 13.775-10.643z" fill="#99644c"/><path d="M86.231 22.794c.775-6.041 9.274-9.929 18.983-8.684 8.283 1.062 14.771 5.517 16.017 10.554.323 1.304-.805 2.515-2.138 2.344z" fill="#002652"/><path d="m92.469 55.685 2.442-.511c1.581-.331 2.882 1.252 2.251 2.739l-2.304 5.43" fill="#1d2445" opacity=".1"/><circle cx="125.338" cy="51.849" fill="#002652" r="16.782"/><circle cx="110.212" cy="53.771" fill="#002652" r="11.116"/><g fill="#99644c"><path d="m16.8 8.7-.939 3.15-.821 2.75-1.408-7.17-.459-2.34c-.096-.94.416-1.76 1.184-2.02 0 0 0-.01.011-.01.277-.06.555.1.63.36z"/><path d="m14.517 16.36.523-1.76.822-2.75-2.23-4.42-.63-1.25c-.096-.26-.395-.38-.672-.29 0 .01 0 .01-.011.01-.726.35-1.11 1.23-.886 2.15l2.379 6.93.597 1.72z"/><path d="m14.517 16.36-.704-1.38-2.795-5.57c-.096-.25-.405-.38-.672-.28l-.011.01c-.726.35-1.12 1.23-.886 2.15l3.521 10.23 1.44-4.82z"/></g><path d="m14.517 16.36-.107.34" fill="none"/><path d="m16.8 8.7-.939 3.15-.821 2.75-1.408-7.17-.459-2.34c-.096-.94.416-1.76 1.184-2.02 0 0 0-.01.011-.01.277-.06.555.1.63.36z" fill="#002652" opacity=".1"/><path d="m14.517 16.36.523-1.76.822-2.75-2.23-4.42-.63-1.25c-.096-.26-.395-.38-.672-.29 0 .01 0 .01-.011.01-.726.35-1.11 1.23-.886 2.15l2.379 6.93.597 1.72z" fill="#002652" opacity=".1"/><path d="m14.517 16.36-.704-1.38-2.795-5.57c-.096-.25-.405-.38-.672-.28l-.011.01c-.726.35-1.12 1.23-.886 2.15l3.521 10.23 1.44-4.82z" fill="#002652" opacity=".1"/><path d="m20.835 44.375-6.45-8.175-.498-.62c-1.176-1.465-1.544-3.365-.99-5.124l.547-1.74 2.772-7.463a3.467 3.467 0 0 0-.082-2.655l-1.08-2.428 1.555-3.967a6.135 6.135 0 0 0 .419-2.832l-.776-8.92c-.022-.269-.272-.47-.559-.449l-.009.001-.03.004c-.961.135-1.691.88-1.753 1.789l-.539 8.19-4.663 8.52-1.333 1.374a.61.61 0 0 1-.668.127.558.558 0 0 1-.347-.577c.173-1.472.828-6.173.946-6.961.126-.778-.444-1.505-1.275-1.624a1.023 1.023 0 0 0-.058-.007c-.71-.088-1.395.283-1.669.903 0 0-1.23 3.653-1.962 5.988a8.693 8.693 0 0 1-1.103 2.342A7.4 7.4 0 0 0 0 24.019l.049 3.863c.03 2.198-.059 4.39 2.244 6.58L5.97 40.24z" fill="#99644c"/><path d="M35.66 49.623 15.596 35.38a5.9 5.9 0 0 1-1.669-1.816l-1.709-2.897-7.158 8.132L18.629 61.56l3.002 3.417c2.919 3.662 16.611-13.414 14.029-15.354z" fill="#99644c"/><path d="M45.759 74.076a12.265 12.265 0 0 0-.814-14.549l-5.48-6.614c-2.061-2.487-5.07-4.39-7.706-6.257L18.562 61.768c3.021 3.578 6.261 7.984 10.394 10.185l4.372 2.421c2.072 1.103 10.485 2.67 11.772.707z" fill="#93c3ff"/><path d="M174.404 132.862s1.721 21.876 2.232 26.705l1.592 10.993 7.825-.181 9.49-37.21c.832-4.608-21.38-3.528-21.139-.307z" fill="#99644c"/><path d="M188.16 108.574a12.265 12.265 0 0 0-11.172 9.355l-2.022 8.348c-.76 3.139-.876 4.236-.406 10.97l19.872.161c2-4.091 2.448-12.446 1.739-17.075l-.336-4.977c-.355-2.32-4.132-7-6.475-6.856z" fill="#93c3ff"/><path d="m105.4 44.03-9.399-1.205 1.199-9.347 9.399 1.205a3.79 3.79 0 0 1 3.277 4.242l-.235 1.829a3.79 3.79 0 0 1-4.241 3.276z" fill="#99644c"/><path d="m90.845 19.458 11.854 1.52-1.467 11.437c1.64.345 3.213.647 3.456.599.371-.073-3.905 3.593-6.581 5.863-.734.624-1.847.014-1.725-.942l.436-3.401a1.055 1.055 0 0 0-.912-1.18l-4.746-.609a6.192 6.192 0 0 1-5.354-6.929l.351-2.737a4.19 4.19 0 0 1 4.688-3.621z" fill="#002652"/><path d="m78.566 185.689-13.268-30.653 19.505-5.417 90.239-.429-.065 9.689c.009.97-.079 1.943-.252 2.897-4.233 23.271-3.839 36.643-52.111 35.574z" fill="#016eea"/><path d="m155.682 97.634-10.891-11.881a2 2 0 0 0-3.23.394l-5.632 10.326z" fill="#002652" opacity=".1"/><path d="m191.46 167.163 6.276 5.114c.679.552 1.416 1.03 2.198 1.424l1.589.804.459 4.144-11.769-.924a1.667 1.667 0 0 0-1.769 2.289l2.862 6.834a1.49 1.49 0 0 1-.756 2.055.772.772 0 0 1-.919-.3l-9.499-13.184.016-.008a10.688 10.688 0 0 1-1.858-8.741l.11-.452-.766-12.517 11.289-6.47.109 14.767a6.6 6.6 0 0 0 2.428 5.165z" fill="#99644c"/><path d="M215.596 182.186c-.43.777-1.464 1.177-2.521.897l-15.663-5.52-.586-5.444 18.468 9.314c.289.12.426.451.307.74l-.005.013z" fill="#99644c"/><path d="m180.865 125.722 14.299-9.686c1.543-1.19-3.271-8.73-4.471-10.265l-33.438-42.602-17.473 18.39z" fill="#93c3ff"/></svg></g><g transform="translate(93.0 343.0) rotate(0.0 89.5 87.0) scale(0.9955561488106163 0.9984793274610507)"><svg width="179.799" height="174.265" viewBox="0 0 179.799 174.265"><path d="M113.995 174.265H50.998V0h52.997c5.523 0 10 4.477 10 10z" fill="#e8e9ec"/><path d="M81.244 69.389h88.554c5.523 0 10 4.477 10 10v90.875a4 4 0 0 1-4 4H75.244a4 4 0 0 1-4-4V79.389c0-5.523 4.477-10 10-10z" fill="#e8e9ec"/><path d="M4 174.265h67.996V0H10C4.477 0 0 4.477 0 10v160.265a4 4 0 0 0 4 4z" fill="#dddee3"/></svg></g><g transform="translate(405.0 348.0) rotate(0.0 11.5 41.0) scale(1.131166084689913 1.1131171352165827)"><svg width="20.333" height="73.667" viewBox="0 0 20.333 73.667"><path d="M19.348 30.357A6.918 6.918 0 0 0 13.418 27H6.915A6.918 6.918 0 0 0 0 33.915v35.751a4 4 0 0 0 4 4h12.334a4 4 0 0 0 4-4V33.915a6.926 6.926 0 0 0-.986-3.558z" fill="#013b84"/><path d="M14.833.333H5.5l-2 32h13.333z" fill="#013b84"/><path d="M15.097 2.833H5.236a.644.644 0 0 1-.609-.854l.218-.631A2 2 0 0 1 6.736 0h6.862c.853 0 1.613.542 1.891 1.348l.218.631a.645.645 0 0 1-.61.854zM9.5 64.167c-3.998 0-7.25-3.252-7.25-7.25v-12.5c0-3.998 3.252-7.25 7.25-7.25h1.333c3.998 0 7.25 3.252 7.25 7.25v12.5c0 3.998-3.252 7.25-7.25 7.25z" fill="#016eea"/><g fill="#2888ff"><path d="M10.833 38.167a6.257 6.257 0 0 1 6.25 6.25v12.5a6.257 6.257 0 0 1-6.25 6.25H9.5a6.257 6.257 0 0 1-6.25-6.25v-12.5a6.257 6.257 0 0 1 6.25-6.25zm0-2H9.5a8.25 8.25 0 0 0-8.25 8.25v12.5a8.25 8.25 0 0 0 8.25 8.25h1.333a8.25 8.25 0 0 0 8.25-8.25v-12.5a8.25 8.25 0 0 0-8.25-8.25z"/><path d="M1.25 47.5h17.833v6.333H1.25z"/></g></svg></g><g transform="translate(372.0 388.0) rotate(0.0 11.5 21.0) scale(0.9857283675481079 0.9645859170456111)"><svg width="23.333" height="43.542" viewBox="0 0 23.333 43.542"><path d="m23.333 40.208-11.833-3-11.5 3 2.404 2.671c.379.421.92.662 1.487.662h15.552c.567 0 1.107-.241 1.487-.662zM3 0h17.333v3.75H3z" fill="#93c3ff"/><path d="M20.333 1.542H3L0 6.708l11.667 3 11.666-3z" fill="#348bee"/><path d="M0 6.708h23.333v33.5H0z" fill="#016eea"/></svg></g><g transform="translate(367.0 430.0) rotate(0.0 33.0 41.5) scale(0.9915716410510659 0.9900163412335842)"><svg width="66.561" height="83.837" viewBox="0 0 66.561 83.837"><g fill="#e8e9ec"><path d="M0 0h66.561v6.656H0z"/><path d="M44.481 83.838 33.697 25.434 22.912 83.838l-6.883-1.271L30.255 5.523a3.499 3.499 0 0 1 6.882 0l14.226 77.043z"/></g></svg></g><g transform="translate(708.0 343.0) rotate(0.0 -89.5 87.0) scale(-0.9955561488106163 0.9984793274610507)"><svg width="179.799" height="174.265" viewBox="0 0 179.799 174.265"><path d="M113.995 174.265H50.998V0h52.997c5.523 0 10 4.477 10 10z" fill="#e8e9ec"/><path d="M81.244 69.389h88.554c5.523 0 10 4.477 10 10v90.875a4 4 0 0 1-4 4H75.244a4 4 0 0 1-4-4V79.389c0-5.523 4.477-10 10-10z" fill="#e8e9ec"/><path d="M4 174.265h67.996V0H10C4.477 0 0 4.477 0 10v160.265a4 4 0 0 0 4 4z" fill="#dddee3"/></svg></g><g transform="translate(647.0 338.0) rotate(0.0 13.0 46.0) scale(1.2676743052169672 1.2649177803442777)"><svg width="20.51" height="72.732" viewBox="0 0 20.51 72.732"><path d="M4.14 2.964v69.768h16.37l-.94-11.5-1.402-4.934.632-4.506-.81-9.89-1.429-5.26.659-4.17-.81-9.89-1.385-4.665.605-4.775-.72-8.468c-.23-2.56-4.24-.59-6.8-.86l-2.51-.26c-1.68-.62-1.46-2.38-1.46-.59z" fill="#016eea"/><g fill="#2888ff"><path d="M4.14 51.792v9.44h15.43l-.77-9.44zm0-19.32v9.43h13.85l-.77-9.43zm0-19.33v9.44h12.27l-.78-9.44z"/><path d="M0 2.572v7.12l1 5.05-1 4.381v9.899l1 3.885-1 5.545v9.89l1 4.504-1 4.936v11.9h16.37l-1.27-11.9-1.543-5.126.543-4.314-1.05-9.89-1.494-4.615.484-4.815-1.05-9.9-1.544-5.125.544-4.305-.62-5.81L3.46.162C1.78-.458 0 .782 0 2.572z"/></g><path d="M0 48.342v9.44h15.1l-1-9.44zm0-19.32v9.43h13.05l-1.01-9.43zm0-19.33v9.43h10.99l-1-9.43z" fill="#93c3ff"/></svg></g></svg>